<svg width="18" height="18" viewBox="0 0 18 18" fill="none" xmlns="http://www.w3.org/2000/svg">
<rect width="18" height="18" rx="5" fill="white" fill-opacity="0.9"/>
<path d="M6.1 11.36C6.38667 11.36 6.63 11.3133 6.83 11.22C7.03667 11.12 7.20333 10.99 7.33 10.83C7.46333 10.6633 7.56 10.4767 7.62 10.27C7.68667 10.0567 7.72 9.83333 7.72 9.6V9.48H8.56V9.6C8.56 9.95333 8.50667 10.2867 8.4 10.6C8.29333 10.9067 8.13667 11.1767 7.93 11.41C7.72333 11.6367 7.46667 11.8167 7.16 11.95C6.85333 12.0767 6.5 12.14 6.1 12.14C5.32667 12.14 4.72333 11.8967 4.29 11.41C3.85667 10.9233 3.64 10.2133 3.64 9.28V7.72C3.64 6.81333 3.85667 6.11 4.29 5.61C4.72333 5.11 5.32667 4.86 6.1 4.86C6.5 4.86 6.85333 4.92667 7.16 5.06C7.46667 5.18667 7.72333 5.36667 7.93 5.6C8.13667 5.82667 8.29333 6.09667 8.4 6.41C8.50667 6.71667 8.56 7.04667 8.56 7.4V7.52H7.72V7.4C7.71333 7.17333 7.67667 6.95333 7.61 6.74C7.55 6.52667 7.45333 6.34 7.32 6.18C7.19333 6.01333 7.03 5.88333 6.83 5.79C6.63 5.69 6.38667 5.64 6.1 5.64C5.56 5.64 5.15333 5.83667 4.88 6.23C4.61333 6.62333 4.48 7.14 4.48 7.78V9.22C4.48 9.90667 4.61333 10.4367 4.88 10.81C5.15333 11.1767 5.56 11.36 6.1 11.36ZM9.39305 5H10.293L12.123 11.64H12.243L14.073 5H14.973L12.993 12H11.373L9.39305 5Z" fill="#006239"/>
</svg>
